<?xml version="1.0" encoding="iso-8859-1"?>
<!-- Generator: Adobe Illustrator 19.0.0, SVG Export Plug-In . SVG Version: 6.00 Build 0)  -->
<svg version="1.1" id="Layer_1" xmlns="http://www.w3.org/2000/svg" xmlns:xlink="http://www.w3.org/1999/xlink" x="0px" y="0px"
	 viewBox="0 0 512 512" style="enable-background:new 0 0 512 512;" xml:space="preserve" fill="#ffffff">
<g>
	<g>
		<path d="M202.431,386.718v79.568c0,13.317,10.796,24.113,24.113,24.113s24.113-10.796,24.113-24.113v-79.568H202.431z"/>
	</g>
</g>
<g>
	<g>
		<path d="M261.068,386.718v79.568c0,13.317,10.796,24.113,24.113,24.113s24.113-10.796,24.113-24.113v-79.568H261.068z"/>
	</g>
</g>
<g>
	<g>
		<path d="M144.502,153.934l-29.954,48.163c-4.391,7.061-3.98,16.096,1.034,22.729c26.078,34.504,29.37,38.873,29.972,39.624
			C145.554,264.449,144.451,239.839,144.502,153.934z"/>
	</g>
</g>
<g>
	<g>
		<path d="M400.36,152.865L358.445,46.201c-4.058-10.329-15.72-15.414-26.051-11.351c-10.328,4.058-15.412,15.722-11.352,26.051
			l18.084,46.021c-14.657-8.283-22.711-10.355-29.222-10.355c-58.667,0-59.329,0-108.089,0c-18.612,0-34.796,10.801-42.596,26.462
			c6.511-2.922,4.308-2.17,77.012-2.17h106.413c13.704,0,24.853,11.149,24.853,24.853v28.972c2.303,1.754,6.645,5.624,14.161,5.624
			c4.249,0,8.501-1.343,12.079-4.036C400.953,170.843,403.664,161.269,400.36,152.865z"/>
	</g>
</g>
<g>
	<g>
		<path d="M386.643,313.275v-0.166h-0.856c-1.685-0.307-35.029-0.476-35.029-0.476v-31.846c-2.544,0.882-5.272,1.367-8.113,1.367
			h-13.142c4.688,5.462,7.524,12.557,7.524,20.302c0,3.563-0.608,6.985-1.713,10.177c-0.055,0.158-0.105,0.319-0.161,0.476h-19.501
			c2.872-2.652,4.68-6.436,4.68-10.654c0-8.016-6.499-14.516-14.516-14.516h-28.042v-22.481h64.871c4.505,0,8.158-3.652,8.158-8.158
			V145.71c0-4.505-3.653-8.158-8.158-8.158H169.355c-4.504,0-8.158,3.652-8.158,8.158v111.591c0,4.505,3.652,8.158,8.158,8.158
			h64.872v22.481h-28.043c-8.017,0-14.516,6.5-14.516,14.516c0,4.217,1.809,8.001,4.68,10.654h-19.501
			c-0.058-0.157-0.107-0.318-0.161-0.476c-1.104-3.192-1.713-6.615-1.713-10.177c0-7.745,2.835-14.84,7.524-20.302h-13.141
			c-3.11,0-6.086-0.58-8.833-1.627v32.107c0,0-32.624,0.169-34.309,0.476h-0.441v0.079c-13.238,2.628-23.249,14.328-23.249,28.325
			v155.97c0,8.016,6.499,14.516,14.516,14.516c8.017,0,14.516-6.5,14.516-14.516V369.502h248.889v127.981
			c0,8.016,6.499,14.516,14.516,14.516c8.017,0,14.516-6.5,14.516-14.516V341.514C409.476,327.663,399.672,316.063,386.643,313.275z
			 M255.999,227.73c-13.032,0-23.597-10.565-23.597-23.597c0-13.032,10.565-23.598,23.597-23.598s23.597,10.565,23.597,23.598
			C279.596,217.166,269.031,227.73,255.999,227.73z"/>
	</g>
</g>
<g>
	<g>
		<circle cx="255.855" cy="41.645" r="41.645"/>
	</g>
</g>
<g>
</g>
<g>
</g>
<g>
</g>
<g>
</g>
<g>
</g>
<g>
</g>
<g>
</g>
<g>
</g>
<g>
</g>
<g>
</g>
<g>
</g>
<g>
</g>
<g>
</g>
<g>
</g>
<g>
</g>
</svg>
