<?xml version="1.0" encoding="utf-8"?>
<!-- Svg Vector Icons : http://www.onlinewebfonts.com/icon -->
<!DOCTYPE svg PUBLIC "-//W3C//DTD SVG 1.1//EN" "http://www.w3.org/Graphics/SVG/1.1/DTD/svg11.dtd">
<svg version="1.1" xmlns="http://www.w3.org/2000/svg" xmlns:xlink="http://www.w3.org/1999/xlink" x="0px" y="0px" viewBox="0 0 1000 1000" enable-background="new 0 0 1000 1000" xml:space="preserve" fill="#000">
<metadata> Svg Vector Icons : http://www.onlinewebfonts.com/icon </metadata>
<g><g transform="translate(0.000000,512.000000) scale(0.100000,-0.100000)"><path d="M1521.3,4994.7c-275.8-53.6-352.4-93.8-352.4-189.6c0-49.8,67-124.5,478.8-540c461.5-463.4,478.8-484.5,478.8-555.4s-15.3-91.9-321.7-396.4c-304.5-306.4-325.6-321.7-396.4-321.7s-91.9,17.2-555.4,478.8c-415.6,411.7-490.3,478.8-540,478.8c-30.6,0-70.8-15.3-88.1-34.5c-49.8-55.5-111.1-319.8-122.6-540c-44-836.9,570.7-1591.4,1419-1740.7c264.3-47.9,683.7-3.8,902,91.9c49.8,23,99.6,40.2,111.1,40.2c24.9,0,1526.3-1495.6,1526.3-1522.4c0-9.6-677.9-695.2-1505.2-1522.4c-827.3-827.3-1535.8-1551.2-1576.1-1608.6c-95.8-141.7-888.6-1807.8-879-1851.8c3.8-19.2,21.1-36.4,40.2-40.2c28.7-5.7,1168.2,524.7,1689.1,787.1l191.5,95.8L3562.7-2359C4411-1512.5,5113.9-819.3,5123.4-819.3c11.5,0,360-340.9,775.6-756.4l756.4-756.4l-26.8-61.3c-101.5-247-122.6-363.9-124.5-666.4c-1.9-340.9,23-463.4,143.6-723.9c93.8-204.9,208.7-363.9,373.4-522.8c218.3-208.7,465.4-350.5,733.5-423.2c210.7-59.4,637.7-57.5,852.2,0c176.2,47.9,222.1,82.3,222.1,162.8c0,49.8-67,124.5-478.8,540c-461.5,463.4-478.8,484.5-478.8,555.4c0,70.9,15.3,91.9,321.7,396.4c304.5,306.4,325.5,321.7,396.4,321.7s91.9-17.2,555.4-478.8c415.6-411.7,490.2-478.8,540-478.8c80.4,0,114.9,47.9,158.9,222.1c86.2,325.6,65.1,729.6-51.7,1020.7c-151.3,379.2-473,733.5-829.2,911.6c-444.3,224.1-976.7,241.3-1451.6,46l-61.3-26.8L6693.8-781C6278.2-365.4,5937.3-16.9,5937.3-5.4c0,9.6,660.7,679.8,1468.8,1488l1470.7,1470.7l-522.8,520.9L7833.2,3997L6362.5,2526.3c-808.1-808.1-1478.4-1468.8-1488-1468.8c-26.8,0-1522.4,1497.6-1522.4,1524.4c0,11.5,17.2,63.2,40.2,113c95.8,218.3,139.8,637.7,91.9,902c-63.2,365.8-237.5,687.5-507.5,947.9c-224.1,212.6-455.8,346.6-725.8,419.4C2053.6,5015.8,1710.8,5031.1,1521.3,4994.7z"/><path d="M8857.7,4985.2c-46-23-208.7-170.4-415.6-379.2l-340.9-340.9l522.8-522.8l520.9-520.9l348.5,348.5c220.2,222.1,360,377.3,379.2,421.3c36.4,90,36.4,189.6,0,279.6c-40.2,95.8-605.1,666.4-708.6,714.3C9066.5,5031.1,8955.4,5031.1,8857.7,4985.2z"/></g></g>
</svg>